<svg width="32" height="32" viewBox="0 0 32 32" fill="none" xmlns="http://www.w3.org/2000/svg">
  <defs>
    <linearGradient id="bgGradient32" x1="0%" y1="0%" x2="100%" y2="100%">
      <stop offset="0%" style="stop-color:#4A90E2;stop-opacity:1" />
      <stop offset="100%" style="stop-color:#357ABD;stop-opacity:1" />
    </linearGradient>
  </defs>
  
  <!-- Rounded square background -->
  <rect width="32" height="32" rx="7" ry="7" fill="url(#bgGradient32)"/>
  
  <!-- Bar chart - 4 ascending bars (simplified for small size) -->
  <g>
    <!-- Bar 1 -->
    <rect x="5" y="21" width="4" height="5" fill="white" rx="1"/>
    <!-- Bar 2 -->
    <rect x="10" y="19" width="4" height="7" fill="white" rx="1"/>
    <!-- Bar 3 -->
    <rect x="15" y="16" width="4" height="10" fill="white" rx="1"/>
    <!-- Bar 4 -->
    <rect x="20" y="13" width="4" height="13" fill="white" rx="1"/>
  </g>
  
  <!-- Trending arrow line -->
  <path d="M7 23.5 L12 21.5 L17 18.5 L22 16 L26 12" 
        stroke="white" 
        stroke-width="1.5" 
        stroke-linecap="round" 
        stroke-linejoin="round" 
        fill="none"/>
  
  <!-- Data points on the line (simplified) -->
  <circle cx="12" cy="21.5" r="1" fill="white"/>
  <circle cx="17" cy="18.5" r="1" fill="white"/>
  <circle cx="22" cy="16" r="1" fill="white"/>
  
  <!-- Small arrow head -->
  <g transform="translate(25, 10.5)">
    <path d="M0 2.5 L1.5 1 L3 2.5 L2.2 2.5 L2.2 3.5 L0.8 3.5 L0.8 2.5 Z" fill="white"/>
  </g>
</svg>
