<svg width="32" height="32" viewBox="0 0 32 32" fill="none" xmlns="http://www.w3.org/2000/svg">
  <defs>
    <linearGradient id="bgGradient32" x1="0%" y1="0%" x2="100%" y2="100%">
      <stop offset="0%" style="stop-color:#667eea;stop-opacity:1" />
      <stop offset="100%" style="stop-color:#764ba2;stop-opacity:1" />
    </linearGradient>
  </defs>
  
  <!-- Rounded square background -->
  <rect width="32" height="32" rx="7" ry="7" fill="url(#bgGradient32)"/>
  
  <!-- Chart bars -->
  <g>
    <rect x="10" y="18" width="3" height="4" fill="white" rx="0.5"/>
    <rect x="14.5" y="16" width="3" height="6" fill="white" rx="0.5"/>
    <rect x="19" y="14" width="3" height="8" fill="white" rx="0.5"/>
  </g>
  
  <!-- Trending line -->
  <path d="M8 20 L12 16 L16 12 L20 9 L24 7" 
        stroke="white" 
        stroke-width="1.5" 
        stroke-linecap="round" 
        stroke-linejoin="round" 
        fill="none"/>
  
  <!-- Data points -->
  <circle cx="12" cy="16" r="1" fill="white"/>
  <circle cx="16" cy="12" r="1" fill="white"/>
  <circle cx="20" cy="9" r="1" fill="white"/>
  
  <!-- Small trend arrow -->
  <g transform="translate(22.5, 6)">
    <path d="M0 1.5 L1.5 0 L1.5 0.75 L2.5 0.75 L2.5 2.25 L1.5 2.25 L1.5 1.5 Z" fill="white"/>
  </g>
</svg>
