<svg width="512" height="512" viewBox="0 0 512 512" fill="none" xmlns="http://www.w3.org/2000/svg">
  <defs>
    <linearGradient id="bgGradient512" x1="0%" y1="0%" x2="100%" y2="100%">
      <stop offset="0%" style="stop-color:#667eea;stop-opacity:1" />
      <stop offset="100%" style="stop-color:#764ba2;stop-opacity:1" />
    </linearGradient>
  </defs>
  
  <!-- Rounded square background -->
  <rect width="512" height="512" rx="112" ry="112" fill="url(#bgGradient512)"/>
  
  <!-- Graph grid lines (subtle) -->
  <g opacity="0.2">
    <line x1="128" y1="128" x2="128" y2="384" stroke="white" stroke-width="2"/>
    <line x1="256" y1="128" x2="256" y2="384" stroke="white" stroke-width="2"/>
    <line x1="384" y1="128" x2="384" y2="384" stroke="white" stroke-width="2"/>
    <line x1="128" y1="192" x2="384" y2="192" stroke="white" stroke-width="2"/>
    <line x1="128" y1="256" x2="384" y2="256" stroke="white" stroke-width="2"/>
    <line x1="128" y1="320" x2="384" y2="320" stroke="white" stroke-width="2"/>
  </g>
  
  <!-- Chart bars -->
  <g>
    <rect x="154" y="288" width="44" height="64" fill="white" rx="6"/>
    <rect x="234" y="256" width="44" height="96" fill="white" rx="6"/>
    <rect x="314" y="224" width="44" height="128" fill="white" rx="6"/>
  </g>
  
  <!-- Trending line -->
  <path d="M128 320 L192 256 L256 192 L320 144 L384 112" 
        stroke="white" 
        stroke-width="10" 
        stroke-linecap="round" 
        stroke-linejoin="round" 
        fill="none"/>
  
  <!-- Data points -->
  <circle cx="192" cy="256" r="10" fill="white"/>
  <circle cx="256" cy="192" r="10" fill="white"/>
  <circle cx="320" cy="144" r="10" fill="white"/>
  
  <!-- Trend arrow -->
  <g transform="translate(360, 94)">
    <path d="M0 18 L18 0 L18 10 L32 10 L32 26 L18 26 L18 18 Z" fill="white"/>
  </g>
</svg>
